<svg xmlns="http://www.w3.org/2000/svg" width="300" height="300" viewBox="0 0 300 300">
    <g fill="none" fill-rule="evenodd">
        <path fill="#F05228" d="M109.314 58.649L88.987 12.996C69.138 21.833 52.16 34.456 38.511 49.63l37.182 33.477c9.311-10.335 20.747-18.717 33.621-24.46"/>
        <path fill="#484C52" d="M75.693 83.108L38.533 49.65C23.995 65.797 13.62 84.234 7.323 103.648l47.565 15.455c4.377-13.48 11.536-25.705 20.805-35.995"/>
        <path fill="#F05228" d="M50.015 150c0-10.784 1.714-21.166 4.874-30.897L7.323 103.648c-6.318 19.407-8.762 40.422-6.49 62.03l49.724-5.227c-.356-3.434-.542-6.922-.542-10.451"/>
        <path fill="#3CAA0B" d="M50.557 160.451l-49.754 5.23c2.122 20.297 8.438 40.49 19.302 59.306l43.291-24.994c-6.86-11.856-11.355-25.25-12.839-39.542"/>
        <path fill="#484C52" d="M63.396 199.993l-43.318 25.01c10.195 17.68 24.177 33.556 41.756 46.328l29.39-40.45c-11.295-8.22-20.803-18.745-27.828-30.888"/>
        <path fill="#F05228" d="M91.224 230.88l-29.408 40.475c16.505 12.005 35.737 20.823 56.99 25.34l10.392-48.887c-13.955-2.953-26.834-8.817-37.975-16.927"/>
        <path fill="#484C52" d="M150 249.981c-7.134 0-14.091-.753-20.802-2.174L118.8 296.724c19.962 4.255 41.117 4.488 62.37-.029l-10.39-48.883c-6.704 1.417-13.654 2.17-20.78 2.17"/>
        <path fill="#F05228" d="M170.78 247.813l10.396 48.911c19.967-4.23 39.389-12.623 56.967-25.392l-29.382-40.44c-11.143 8.108-24.024 13.97-37.981 16.92"/>
        <path fill="#484C52" d="M236.598 200.004c-7.028 12.144-16.539 22.668-27.837 30.889l29.399 40.463c16.519-11.988 30.848-27.553 41.712-46.37l-43.274-24.982z"/>
        <path fill="#F05228" d="M249.442 160.454c-1.484 14.293-5.981 27.691-12.844 39.55l43.3 24.998c10.216-17.669 16.975-37.717 19.246-59.324l-49.702-5.224z"/>
        <path fill="#484C52" d="M292.625 103.658l-47.517 15.438c3.162 9.733 4.876 20.118 4.876 30.904 0 3.53-.185 7.018-.543 10.454l49.733 5.227c2.144-20.296.165-41.36-6.549-62.023"/>
        <path fill="#F05228" d="M245.109 119.096l47.545-15.448c-6.296-19.413-16.672-37.85-31.21-53.997l-37.147 33.445c9.272 10.291 16.434 22.517 20.812 36"/>
        <path fill="#484C52" d="M224.296 83.097l37.146-33.446c-14.538-16.146-31.79-28.392-50.44-36.682L190.665 58.64c12.877 5.74 24.317 14.12 33.63 24.456"/>
        <path fill="#F05228" d="M150 50.019c14.482 0 28.242 3.083 40.667 8.622l20.335-45.673C192.362 4.657 171.716.03 149.989.03v49.989h.01z"/>
        <path fill="#484C52" d="M149.989 50.019V0c-20.41-.012-41.152 4.159-61.001 12.996l20.327 45.653c12.426-5.543 26.189-8.628 40.674-8.63"/>
        <path fill="#1A1919" d="M150 249.981c-55.22 0-99.985-44.764-99.985-99.98 0-55.219 44.765-99.982 99.985-99.982S249.985 94.782 249.985 150c0 55.217-44.765 99.981-99.985 99.981m0-214.98C86.487 35 35 86.486 35 150c0 63.512 51.487 115 115 115s115-51.488 115-115c0-63.514-51.487-115-115-115" opacity=".192"/>
    </g>
</svg>
